<svg xmlns="http://www.w3.org/2000/svg" xml:space="preserve" width="210mm" height="297mm" viewBox="0 0 210 297"><path d="M24.212 85.284c-2.546-20.4-4.601-37.447-4.568-37.882l.062-.79 21.433-17.758 21.433-17.758.64-.076c.351-.042.853.112 1.114.343l.474.42-1.776 16.808L61.248 45.4l.634.375c.35.206 5.222 3.502 10.828 7.323 3.832 2.563 7.563 5.302 10.897 7.457 3.016 3.407 6.093 6.924 8.669 9.858 4.477 5.097 8.343 9.53 8.59 9.852l.45.584 16.466-3.811 16.466-3.812.475.42c.261.231.475.71.476 1.064l.003.644-14.99 23.393c-8.244 12.866-15.158 23.48-15.364 23.587-.27.141-55.54.179-74.718.05l-1.287-.007zm19.663 18.238 8.694-9.842-1.942-5.757a1392.863 1392.863 0 0 0-2.66-7.823l-.717-2.064-.289 1.846c-.159 1.016-.37 2.381-.47 3.034l-.18 1.188-6.755 11.65a5632.709 5632.709 0 0 0-7.406 12.796l-.65 1.146.476.573c.263.315 1.091 1.14 1.84 1.833l1.364 1.261 8.694-9.842zm-2.799 14.612c.099-.006 5.459-4 11.911-8.877l11.732-8.866 1.157-.325c.636-.178 1.965-.554 2.954-.836l1.798-.512-2.137-.46c-1.175-.253-4.815-1.012-8.088-1.686l-5.952-1.226-8.734 9.857-8.734 9.857 1.956 1.542c1.077.848 2.038 1.537 2.136 1.53zm-4.484-22.548c3.731-6.457 6.778-11.841 6.77-11.965-.018-.299-20.362-31.728-20.53-31.718-.072.005 1.422 12.48 3.32 27.723 1.898 15.243 3.497 27.711 3.553 27.707.057-.004 3.156-5.29 6.887-11.747zm35.564 24.274c15.066.022 27.39-.018 27.386-.09-.01-.168-33.685-16.53-33.983-16.512-.124.007-4.893 3.538-10.598 7.845-5.704 4.307-10.615 8.001-10.913 8.21l-.541.378.627.065c.345.036 12.955.083 28.022.104zm-3.51-44.42 4.667-5.385-12.932.153-12.932.153.6 1.749c.331.962 1.913 5.683 3.516 10.49l2.914 8.743 4.75-5.259a835.487 835.487 0 0 0 9.418-10.644zm9.021 22.02.547.119-1.292-11.544c-.71-6.349-1.348-12.18-1.418-12.957l-.127-1.413-9.498 10.736-9.498 10.735 10.37 2.103a4340.154 4340.154 0 0 1 10.916 2.221zM43.829 54.317c6.235-3.9 11.332-7.14 11.329-7.203-.004-.062-7.017.252-15.584.699l-15.576.812 3.49 5.38c1.92 2.959 3.651 5.664 3.848 6.012.198.348.539.803.758 1.011l.4.38 11.335-7.09zm52.068 60.621c3.534 1.713 6.492 3.166 6.574 3.228.08.064-.335-6.903-.926-15.479-.592-8.576-1.127-15.589-1.19-15.585-.062.004-2.658 5.459-5.768 12.122l-5.655 12.114.27.243c.147.134 3.16 1.644 6.695 3.357zM40.414 64.906c2.163.98 4.053 1.777 4.2 1.774.146-.003 2.517-3.631 5.268-8.062l5.002-8.055-1.245.734C51.645 52.472 35.851 62.385 35.7 62.556c-.075.085.07.248.322.363l4.392 1.987zm46.999 43.376c.142-.16 8.097-17.143 8.976-19.163l.577-1.326-7.386 5.947c-4.062 3.27-7.374 6.066-7.36 6.213.023.241 4.595 7.96 4.927 8.318.078.083.197.089.265.012zm-25.74-40.69 13.09-.163-.242-.478c-.324-.639-14.811-18.669-14.986-18.65-.104.01-8.55 13.45-11.663 18.557l-.475.78.593.059c.327.032 6.484-.015 13.684-.105zm28.2 22.515c4.826-3.888 8.772-7.131 8.771-7.206-.002-.175-19.665-12.358-20.338-12.601l-.504-.183 1.501 13.54c.826 7.446 1.568 13.534 1.65 13.529.081-.005 4.096-3.19 8.92-7.079zM41.7 45.1c9.167-.495 16.768-.953 16.89-1.017.12-.064.902-6.549 1.734-14.41l1.514-14.294-.469.24c-.258.133-8.365 6.805-18.016 14.827C33.7 38.467 25.572 45.197 25.287 45.4c-.285.203-.459.42-.387.484.072.064 7.631-.29 16.799-.784zm76.523 51.851c7.039-10.986 12.793-20.056 12.787-20.155-.015-.255-27.954 6.248-28.062 6.532-.137.36 2.173 33.617 2.335 33.607.078-.006 5.9-8.997 12.94-19.984zM86.356 72.078l7.926 4.9-.457-.684c-.251-.376-3.05-3.637-6.219-7.247l-5.762-6.564-7.215-4.917c-3.968-2.704-7.546-5.084-7.952-5.289l-.739-.372 5.55 6.97c3.051 3.835 5.862 7.271 6.245 7.637.383.366 4.263 2.87 8.623 5.566z" style="fill:#000;stroke-width:.27502"/></svg>